<svg width="139" height="35" viewBox="0 0 139 35" fill="none" xmlns="http://www.w3.org/2000/svg">
<g clip-path="url(#clip0_18_2183)">
<path d="M25.0664 23.4336C24.3398 22.707 23.5124 22.485 22.584 22.7676L20.6465 20.8301C22.3822 18.6908 23.25 16.2891 23.25 13.625C23.25 10.3958 22.1198 7.65104 19.8594 5.39062C17.599 3.13021 14.8542 2 11.625 2C8.39583 2 5.65104 3.13021 3.39062 5.39062C1.13021 7.65104 0 10.3958 0 13.625C0 16.8542 1.13021 19.599 3.39062 21.8594C5.65104 24.1198 8.39583 25.25 11.625 25.25C14.4505 25.25 16.8522 24.3822 18.8301 22.6465L20.7676 24.584C20.5254 25.5527 20.7474 26.3802 21.4336 27.0664L26.5801 32.2129C27.1048 32.7376 27.7103 33 28.3965 33C29.123 33 29.7285 32.7376 30.2129 32.2129C30.7376 31.6882 31 31.0827 31 30.3965C31 29.7103 30.7376 29.1048 30.2129 28.5801L25.0664 23.4336ZM11.625 22.6465C9.1224 22.6465 6.99316 21.7686 5.2373 20.0127C3.48145 18.2568 2.60352 16.1276 2.60352 13.625C2.60352 11.1224 3.48145 8.99316 5.2373 7.2373C6.99316 5.48145 9.1224 4.60352 11.625 4.60352C14.1276 4.60352 16.2568 5.48145 18.0127 7.2373C19.7686 8.99316 20.6465 11.1224 20.6465 13.625C20.6465 16.1276 19.7686 18.2568 18.0127 20.0127C16.2568 21.7686 14.1276 22.6465 11.625 22.6465Z" fill="#26890D"/>
<path d="M29.0008 2.8847C28.8684 2.53603 28.615 2.25895 28.2962 2.11416C28.1393 2.04104 27.9708 2.00225 27.8003 2H21.2759C20.9298 2 20.5979 2.15034 20.3532 2.41794C20.1085 2.68555 19.971 3.04849 19.971 3.42694C19.971 3.80539 20.1085 4.16834 20.3532 4.43594C20.5979 4.70355 20.9298 4.85388 21.2759 4.85388H24.6555L17.3612 12.8305L13.0681 8.12158C12.9468 7.98784 12.8025 7.88168 12.6435 7.80924C12.4845 7.73679 12.3139 7.69949 12.1417 7.69949C11.9694 7.69949 11.7989 7.73679 11.6399 7.80924C11.4808 7.88168 11.3365 7.98784 11.2152 8.12158L3.38591 16.6832C3.2636 16.8159 3 17 2.5 17.5C2.43375 17.6739 2.99992 17.508 2.99992 17.6964C2.99992 17.8847 3.43368 17.8261 3.49992 18C3.56617 18.1739 3.87762 18.3673 3.99992 18.5C4.12123 18.6337 3.84099 18.9276 4 19C4.15901 19.0724 4.14011 19.1316 4.31237 19.1316C4.48463 19.1316 4.34091 19.5724 4.49992 19.5C4.65893 19.4276 5.11754 18.8432 5.23884 18.7095L12.1417 11.1467L16.4348 15.8556C16.5561 15.9894 16.7004 16.0955 16.8594 16.168C17.0184 16.2404 17.189 16.2777 17.3612 16.2777C17.5335 16.2777 17.704 16.2404 17.863 16.168C18.0221 16.0955 18.1664 15.9894 18.2877 15.8556L26.4954 6.86587V10.5617C26.4954 10.9401 26.6329 11.303 26.8776 11.5707C27.1223 11.8383 27.4542 11.9886 27.8003 11.9886C28.1464 11.9886 28.4783 11.8383 28.723 11.5707C28.9677 11.303 29.1052 10.9401 29.1052 10.5617V3.42694C29.1031 3.24047 29.0677 3.05625 29.0008 2.8847Z" fill="white"/>
<path d="M2 18.5L5.5 20.5C5.5 20.5 4.5091 19.3331 4 18.5C3.54465 17.7549 3 16.5 3 16.5L2 18.5Z" fill="#26890D"/>
</g>
<path d="M49.155 16V8.41L46.02 14.17H45.03L41.88 8.41V16H40.2V5.35H42L45.525 11.86L49.05 5.35H50.85V16H49.155ZM52.3839 13.705C52.3839 13.205 52.5239 12.77 52.8039 12.4C53.0939 12.02 53.4889 11.73 53.9889 11.53C54.4889 11.32 55.0689 11.215 55.7289 11.215C56.0789 11.215 56.4339 11.24 56.7939 11.29C57.1639 11.34 57.4889 11.42 57.7689 11.53V11.035C57.7689 10.485 57.6039 10.055 57.2739 9.745C56.9439 9.435 56.4689 9.28 55.8489 9.28C55.4089 9.28 54.9939 9.36 54.6039 9.52C54.2139 9.67 53.7989 9.885 53.3589 10.165L52.8039 9.055C53.3239 8.705 53.8439 8.445 54.3639 8.275C54.8939 8.105 55.4489 8.02 56.0289 8.02C57.0789 8.02 57.9039 8.3 58.5039 8.86C59.1139 9.41 59.4189 10.195 59.4189 11.215V14.14C59.4189 14.33 59.4489 14.465 59.5089 14.545C59.5789 14.625 59.6939 14.67 59.8539 14.68V16C59.7039 16.03 59.5689 16.05 59.4489 16.06C59.3289 16.07 59.2289 16.075 59.1489 16.075C58.7989 16.075 58.5339 15.99 58.3539 15.82C58.1739 15.65 58.0689 15.45 58.0389 15.22L57.9939 14.77C57.6539 15.21 57.2189 15.55 56.6889 15.79C56.1589 16.03 55.6239 16.15 55.0839 16.15C54.5639 16.15 54.0989 16.045 53.6889 15.835C53.2789 15.615 52.9589 15.32 52.7289 14.95C52.4989 14.58 52.3839 14.165 52.3839 13.705ZM57.3789 14.185C57.4989 14.055 57.5939 13.925 57.6639 13.795C57.7339 13.665 57.7689 13.55 57.7689 13.45V12.55C57.4889 12.44 57.1939 12.36 56.8839 12.31C56.5739 12.25 56.2689 12.22 55.9689 12.22C55.3689 12.22 54.8789 12.34 54.4989 12.58C54.1289 12.82 53.9439 13.15 53.9439 13.57C53.9439 13.8 54.0039 14.02 54.1239 14.23C54.2539 14.44 54.4339 14.61 54.6639 14.74C54.9039 14.87 55.1989 14.935 55.5489 14.935C55.9089 14.935 56.2539 14.865 56.5839 14.725C56.9139 14.585 57.1789 14.405 57.3789 14.185ZM65.8307 9.58C65.1907 9.59 64.6207 9.735 64.1207 10.015C63.6307 10.295 63.2807 10.69 63.0707 11.2V16H61.4207V8.155H62.9507V9.91C63.2207 9.37 63.5757 8.94 64.0157 8.62C64.4557 8.29 64.9207 8.11 65.4107 8.08C65.5107 8.08 65.5907 8.08 65.6507 8.08C65.7207 8.08 65.7807 8.085 65.8307 8.095V9.58ZM72.491 16L69.971 12.385L68.681 13.615V16H67.031V5.05H68.681V11.95L72.311 8.17H74.081L71.036 11.455L74.246 16H72.491ZM78.3936 16.15C77.7836 16.15 77.2286 16.045 76.7286 15.835C76.2386 15.615 75.8136 15.32 75.4536 14.95C75.0936 14.57 74.8136 14.14 74.6136 13.66C74.4236 13.17 74.3286 12.65 74.3286 12.1C74.3286 11.36 74.4986 10.685 74.8386 10.075C75.1786 9.455 75.6536 8.96 76.2636 8.59C76.8736 8.21 77.5886 8.02 78.4086 8.02C79.2286 8.02 79.9336 8.21 80.5236 8.59C81.1236 8.96 81.5886 9.45 81.9186 10.06C82.2486 10.67 82.4136 11.325 82.4136 12.025C82.4136 12.145 82.4086 12.26 82.3986 12.37C82.3886 12.47 82.3786 12.555 82.3686 12.625H76.0836C76.1136 13.085 76.2386 13.49 76.4586 13.84C76.6886 14.18 76.9786 14.45 77.3286 14.65C77.6786 14.84 78.0536 14.935 78.4536 14.935C78.8936 14.935 79.3086 14.825 79.6986 14.605C80.0986 14.385 80.3686 14.095 80.5086 13.735L81.9186 14.14C81.7486 14.52 81.4886 14.865 81.1386 15.175C80.7986 15.475 80.3936 15.715 79.9236 15.895C79.4536 16.065 78.9436 16.15 78.3936 16.15ZM76.0386 11.53H80.7786C80.7486 11.08 80.6186 10.685 80.3886 10.345C80.1686 9.995 79.8836 9.725 79.5336 9.535C79.1936 9.335 78.8136 9.235 78.3936 9.235C77.9836 9.235 77.6036 9.335 77.2536 9.535C76.9136 9.725 76.6336 9.995 76.4136 10.345C76.1936 10.685 76.0686 11.08 76.0386 11.53ZM88.0513 15.595C87.9113 15.665 87.7363 15.74 87.5263 15.82C87.3163 15.9 87.0763 15.97 86.8063 16.03C86.5463 16.09 86.2763 16.12 85.9963 16.12C85.6563 16.12 85.3413 16.06 85.0513 15.94C84.7613 15.82 84.5263 15.63 84.3463 15.37C84.1763 15.1 84.0913 14.755 84.0913 14.335V9.43H83.0563V8.155H84.0913V5.575H85.7413V8.155H87.4513V9.43H85.7413V13.81C85.7613 14.08 85.8463 14.28 85.9963 14.41C86.1563 14.54 86.3513 14.605 86.5813 14.605C86.8113 14.605 87.0313 14.565 87.2413 14.485C87.4513 14.405 87.6063 14.34 87.7063 14.29L88.0513 15.595Z" fill="white"/>
<path d="M102.065 16V8.41L98.9302 14.17H97.9402L94.7902 8.41V16H93.1102V5.35H94.9102L98.4352 11.86L101.96 5.35H103.76V16H102.065ZM105.294 13.705C105.294 13.205 105.434 12.77 105.714 12.4C106.004 12.02 106.399 11.73 106.899 11.53C107.399 11.32 107.979 11.215 108.639 11.215C108.989 11.215 109.344 11.24 109.704 11.29C110.074 11.34 110.399 11.42 110.679 11.53V11.035C110.679 10.485 110.514 10.055 110.184 9.745C109.854 9.435 109.379 9.28 108.759 9.28C108.319 9.28 107.904 9.36 107.514 9.52C107.124 9.67 106.709 9.885 106.269 10.165L105.714 9.055C106.234 8.705 106.754 8.445 107.274 8.275C107.804 8.105 108.359 8.02 108.939 8.02C109.989 8.02 110.814 8.3 111.414 8.86C112.024 9.41 112.329 10.195 112.329 11.215V14.14C112.329 14.33 112.359 14.465 112.419 14.545C112.489 14.625 112.604 14.67 112.764 14.68V16C112.614 16.03 112.479 16.05 112.359 16.06C112.239 16.07 112.139 16.075 112.059 16.075C111.709 16.075 111.444 15.99 111.264 15.82C111.084 15.65 110.979 15.45 110.949 15.22L110.904 14.77C110.564 15.21 110.129 15.55 109.599 15.79C109.069 16.03 108.534 16.15 107.994 16.15C107.474 16.15 107.009 16.045 106.599 15.835C106.189 15.615 105.869 15.32 105.639 14.95C105.409 14.58 105.294 14.165 105.294 13.705ZM110.289 14.185C110.409 14.055 110.504 13.925 110.574 13.795C110.644 13.665 110.679 13.55 110.679 13.45V12.55C110.399 12.44 110.104 12.36 109.794 12.31C109.484 12.25 109.179 12.22 108.879 12.22C108.279 12.22 107.789 12.34 107.409 12.58C107.039 12.82 106.854 13.15 106.854 13.57C106.854 13.8 106.914 14.02 107.034 14.23C107.164 14.44 107.344 14.61 107.574 14.74C107.814 14.87 108.109 14.935 108.459 14.935C108.819 14.935 109.164 14.865 109.494 14.725C109.824 14.585 110.089 14.405 110.289 14.185ZM116.257 16L113.272 8.155H114.982L117.217 14.47L119.452 8.155H121.042L118.057 16H116.257ZM125.518 16.15C124.908 16.15 124.353 16.045 123.853 15.835C123.363 15.615 122.938 15.32 122.578 14.95C122.218 14.57 121.938 14.14 121.738 13.66C121.548 13.17 121.453 12.65 121.453 12.1C121.453 11.36 121.623 10.685 121.963 10.075C122.303 9.455 122.778 8.96 123.388 8.59C123.998 8.21 124.713 8.02 125.533 8.02C126.353 8.02 127.058 8.21 127.648 8.59C128.248 8.96 128.713 9.45 129.043 10.06C129.373 10.67 129.538 11.325 129.538 12.025C129.538 12.145 129.533 12.26 129.523 12.37C129.513 12.47 129.503 12.555 129.493 12.625H123.208C123.238 13.085 123.363 13.49 123.583 13.84C123.813 14.18 124.103 14.45 124.453 14.65C124.803 14.84 125.178 14.935 125.578 14.935C126.018 14.935 126.433 14.825 126.823 14.605C127.223 14.385 127.493 14.095 127.633 13.735L129.043 14.14C128.873 14.52 128.613 14.865 128.263 15.175C127.923 15.475 127.518 15.715 127.048 15.895C126.578 16.065 126.068 16.15 125.518 16.15ZM123.163 11.53H127.903C127.873 11.08 127.743 10.685 127.513 10.345C127.293 9.995 127.008 9.725 126.658 9.535C126.318 9.335 125.938 9.235 125.518 9.235C125.108 9.235 124.728 9.335 124.378 9.535C124.038 9.725 123.758 9.995 123.538 10.345C123.318 10.685 123.193 11.08 123.163 11.53ZM137.919 16H136.269V11.605C136.269 10.875 136.149 10.34 135.909 10C135.679 9.66 135.334 9.49 134.874 9.49C134.554 9.49 134.234 9.57 133.914 9.73C133.604 9.89 133.324 10.11 133.074 10.39C132.824 10.66 132.644 10.975 132.534 11.335V16H130.884V8.155H132.384V9.73C132.584 9.38 132.844 9.08 133.164 8.83C133.494 8.57 133.864 8.37 134.274 8.23C134.684 8.09 135.119 8.02 135.579 8.02C136.049 8.02 136.434 8.105 136.734 8.275C137.044 8.445 137.284 8.68 137.454 8.98C137.634 9.27 137.754 9.61 137.814 10C137.884 10.38 137.919 10.785 137.919 11.215V16Z" fill="#26890D"/>
<path d="M42.6855 26.48V27H39.5525V22.385H42.627V22.905H40.1375V24.4H42.302V24.8875H40.1375V26.48H42.6855ZM48.4808 27H47.9088V25.102C47.9088 24.7467 47.8503 24.4845 47.7333 24.3155C47.6206 24.1465 47.4516 24.062 47.2263 24.062C46.9966 24.062 46.7886 24.1465 46.6023 24.3155C46.416 24.4802 46.2838 24.6947 46.2058 24.959V27H45.6338V25.102C45.6338 24.7423 45.5775 24.4802 45.4648 24.3155C45.3521 24.1465 45.1831 24.062 44.9578 24.062C44.7325 24.062 44.5245 24.1443 44.3338 24.309C44.1475 24.4693 44.0153 24.6838 43.9373 24.9525V27H43.3653V23.607H43.8853V24.335C44.024 24.0837 44.2038 23.8908 44.4248 23.7565C44.6458 23.6178 44.895 23.5485 45.1723 23.5485C45.454 23.5485 45.6793 23.6265 45.8483 23.7825C46.0173 23.9342 46.1213 24.1313 46.1603 24.374C46.312 24.1053 46.4961 23.9017 46.7128 23.763C46.9295 23.62 47.1765 23.5485 47.4538 23.5485C47.6488 23.5485 47.8113 23.5853 47.9413 23.659C48.0756 23.7283 48.1818 23.828 48.2598 23.958C48.3378 24.0837 48.3941 24.2332 48.4288 24.4065C48.4635 24.5798 48.4808 24.7683 48.4808 24.972V27ZM51.1967 27.065C50.9194 27.065 50.6724 26.9957 50.4557 26.857C50.239 26.7183 50.0679 26.5428 49.9422 26.3305V28.3845H49.3702V23.607H49.8772V24.244C50.0115 24.036 50.187 23.8692 50.4037 23.7435C50.6204 23.6135 50.8565 23.5485 51.1122 23.5485C51.3462 23.5485 51.5607 23.5962 51.7557 23.6915C51.9507 23.7868 52.1197 23.9168 52.2627 24.0815C52.4057 24.2462 52.5162 24.4347 52.5942 24.647C52.6765 24.855 52.7177 25.0738 52.7177 25.3035C52.7177 25.6242 52.6527 25.9188 52.5227 26.1875C52.397 26.4562 52.2194 26.6707 51.9897 26.831C51.76 26.987 51.4957 27.065 51.1967 27.065ZM51.0212 26.571C51.1902 26.571 51.3419 26.5363 51.4762 26.467C51.6149 26.3933 51.7319 26.298 51.8272 26.181C51.9269 26.0597 52.0027 25.9232 52.0547 25.7715C52.1067 25.6198 52.1327 25.4638 52.1327 25.3035C52.1327 25.1345 52.1024 24.9742 52.0417 24.8225C51.9854 24.6708 51.903 24.5365 51.7947 24.4195C51.6907 24.3025 51.5672 24.2115 51.4242 24.1465C51.2855 24.0772 51.1339 24.0425 50.9692 24.0425C50.8652 24.0425 50.7569 24.062 50.6442 24.101C50.5359 24.14 50.4319 24.1963 50.3322 24.27C50.2325 24.3393 50.148 24.4195 50.0787 24.5105C50.0094 24.6015 49.9639 24.699 49.9422 24.803V25.7715C50.0072 25.9188 50.0939 26.0532 50.2022 26.1745C50.3105 26.2958 50.4362 26.3933 50.5792 26.467C50.7222 26.5363 50.8695 26.571 51.0212 26.571ZM54.902 27.065C54.6463 27.065 54.4145 27.0195 54.2065 26.9285C53.9985 26.8332 53.8187 26.7053 53.667 26.545C53.5153 26.3803 53.3983 26.1918 53.316 25.9795C53.2337 25.7672 53.1925 25.544 53.1925 25.31C53.1925 25.0717 53.2337 24.8463 53.316 24.634C53.3983 24.4217 53.5153 24.2353 53.667 24.075C53.8187 23.9103 53.9985 23.7825 54.2065 23.6915C54.4188 23.5962 54.6507 23.5485 54.902 23.5485C55.1577 23.5485 55.3895 23.5962 55.5975 23.6915C55.8055 23.7825 55.9853 23.9103 56.137 24.075C56.293 24.2353 56.4122 24.4217 56.4945 24.634C56.5768 24.8463 56.618 25.0717 56.618 25.31C56.618 25.544 56.5768 25.7672 56.4945 25.9795C56.4122 26.1918 56.2952 26.3803 56.1435 26.545C55.9918 26.7053 55.8098 26.8332 55.5975 26.9285C55.3895 27.0195 55.1577 27.065 54.902 27.065ZM53.7775 25.3165C53.7775 25.5505 53.8273 25.7628 53.927 25.9535C54.031 26.1442 54.1675 26.2958 54.3365 26.4085C54.5055 26.5168 54.694 26.571 54.902 26.571C55.11 26.571 55.2985 26.5147 55.4675 26.402C55.6408 26.2893 55.7773 26.1377 55.877 25.947C55.981 25.752 56.033 25.5375 56.033 25.3035C56.033 25.0695 55.981 24.8572 55.877 24.6665C55.7773 24.4758 55.6408 24.3242 55.4675 24.2115C55.2985 24.0988 55.11 24.0425 54.902 24.0425C54.694 24.0425 54.5055 24.101 54.3365 24.218C54.1675 24.3307 54.031 24.4823 53.927 24.673C53.8273 24.8637 53.7775 25.0782 53.7775 25.3165ZM61.4479 23.607H62.0004L60.5574 27H60.0569L59.4004 25.401L58.7504 27H58.2499L56.8069 23.607H57.3529L58.5229 26.4345L59.0689 25.0435L58.4969 23.6135H58.9974L59.4004 24.6925L59.8034 23.6135H60.3039L59.7384 25.0435L60.2844 26.4345L61.4479 23.607ZM63.9225 27.065C63.6668 27.065 63.4328 27.0195 63.2205 26.9285C63.0125 26.8332 62.8305 26.7053 62.6745 26.545C62.5228 26.3803 62.4036 26.1918 62.317 25.9795C62.2346 25.7672 62.1935 25.5418 62.1935 25.3035C62.1935 24.9828 62.2671 24.6903 62.4145 24.426C62.5618 24.1617 62.7655 23.9493 63.0255 23.789C63.2898 23.6287 63.591 23.5485 63.929 23.5485C64.2713 23.5485 64.5681 23.6308 64.8195 23.7955C65.0751 23.9558 65.2723 24.1682 65.411 24.4325C65.554 24.6925 65.6255 24.9742 65.6255 25.2775C65.6255 25.3208 65.6233 25.3642 65.619 25.4075C65.619 25.4465 65.6168 25.4768 65.6125 25.4985H62.798C62.8153 25.7195 62.876 25.9167 62.98 26.09C63.0883 26.259 63.227 26.3933 63.396 26.493C63.565 26.5883 63.747 26.636 63.942 26.636C64.15 26.636 64.345 26.584 64.527 26.48C64.7133 26.376 64.8411 26.2395 64.9105 26.0705L65.4045 26.207C65.3308 26.3717 65.2203 26.519 65.073 26.649C64.93 26.779 64.7588 26.8808 64.5595 26.9545C64.3645 27.0282 64.1521 27.065 63.9225 27.065ZM62.7785 25.102H65.0925C65.0751 24.881 65.0123 24.686 64.904 24.517C64.7956 24.348 64.657 24.2158 64.488 24.1205C64.319 24.0252 64.1326 23.9775 63.929 23.9775C63.7296 23.9775 63.5455 24.0252 63.3765 24.1205C63.2075 24.2158 63.0688 24.348 62.9605 24.517C62.8565 24.686 62.7958 24.881 62.7785 25.102ZM68.0553 24.1075C67.7693 24.1118 67.5158 24.1855 67.2948 24.3285C67.0781 24.4672 66.9243 24.66 66.8333 24.907V27H66.2613V23.607H66.7943V24.3935C66.9113 24.1595 67.0651 23.971 67.2558 23.828C67.4508 23.6807 67.6545 23.5983 67.8668 23.581C67.9101 23.581 67.947 23.581 67.9773 23.581C68.0076 23.581 68.0336 23.5832 68.0553 23.5875V24.1075ZM68.6226 27V23.607H69.1946V27H68.6226ZM68.6226 22.97V22.255H69.1946V22.97H68.6226ZM73.0652 27H72.4932V25.102C72.4932 24.7423 72.4368 24.4802 72.3242 24.3155C72.2158 24.1465 72.049 24.062 71.8237 24.062C71.6677 24.062 71.5117 24.101 71.3557 24.179C71.204 24.257 71.0675 24.3632 70.9462 24.4975C70.8292 24.6275 70.7447 24.7792 70.6927 24.9525V27H70.1207V23.607H70.6407V24.335C70.7317 24.1747 70.8487 24.036 70.9917 23.919C71.1347 23.802 71.2972 23.711 71.4792 23.646C71.6612 23.581 71.8518 23.5485 72.0512 23.5485C72.2462 23.5485 72.4087 23.5853 72.5387 23.659C72.673 23.7283 72.777 23.828 72.8507 23.958C72.9287 24.0837 72.9828 24.2332 73.0132 24.4065C73.0478 24.5798 73.0652 24.7683 73.0652 24.972V27ZM75.3067 27.039C75.077 27.039 74.8647 26.9935 74.6697 26.9025C74.479 26.8072 74.3143 26.6793 74.1757 26.519C74.037 26.3543 73.9287 26.168 73.8507 25.96C73.777 25.752 73.7402 25.5353 73.7402 25.31C73.7402 25.0717 73.777 24.8463 73.8507 24.634C73.9287 24.4217 74.037 24.2353 74.1757 24.075C74.3187 23.9103 74.4855 23.7825 74.6762 23.6915C74.8668 23.5962 75.0792 23.5485 75.3132 23.5485C75.5948 23.5485 75.8397 23.6178 76.0477 23.7565C76.26 23.8952 76.4377 24.0707 76.5807 24.283V23.607H77.0877V26.961C77.0877 27.2817 77.0097 27.5525 76.8537 27.7735C76.702 27.9945 76.494 28.1613 76.2297 28.274C75.9697 28.391 75.6793 28.4495 75.3587 28.4495C74.9773 28.4495 74.6653 28.3823 74.4227 28.248C74.18 28.1137 73.9785 27.9317 73.8182 27.702L74.1497 27.4095C74.284 27.6088 74.4573 27.7583 74.6697 27.858C74.8863 27.9577 75.116 28.0075 75.3587 28.0075C75.5667 28.0075 75.7573 27.9685 75.9307 27.8905C76.1083 27.8168 76.2492 27.702 76.3532 27.546C76.4615 27.39 76.5157 27.195 76.5157 26.961V26.363C76.39 26.571 76.2167 26.7357 75.9957 26.857C75.779 26.9783 75.5493 27.039 75.3067 27.039ZM75.4822 26.571C75.6035 26.571 75.7205 26.5493 75.8332 26.506C75.9458 26.4627 76.0498 26.4063 76.1452 26.337C76.2405 26.2633 76.3207 26.181 76.3857 26.09C76.4507 25.999 76.494 25.9058 76.5157 25.8105V24.8355C76.455 24.6795 76.3683 24.543 76.2557 24.426C76.143 24.3047 76.0152 24.2115 75.8722 24.1465C75.7292 24.0772 75.5818 24.0425 75.4302 24.0425C75.2568 24.0425 75.1008 24.0793 74.9622 24.153C74.8278 24.2267 74.713 24.3263 74.6177 24.452C74.5223 24.5733 74.4487 24.7098 74.3967 24.8615C74.3447 25.0132 74.3187 25.167 74.3187 25.323C74.3187 25.492 74.349 25.6523 74.4097 25.804C74.4703 25.9513 74.5527 26.0835 74.6567 26.2005C74.7607 26.3175 74.8842 26.4085 75.0272 26.4735C75.1702 26.5385 75.3218 26.571 75.4822 26.571ZM79.6549 27V23.607H80.2269V27H79.6549ZM79.6549 22.97V22.255H80.2269V22.97H79.6549ZM84.0974 27H83.5254V25.102C83.5254 24.7423 83.4691 24.4802 83.3564 24.3155C83.2481 24.1465 83.0812 24.062 82.8559 24.062C82.6999 24.062 82.5439 24.101 82.3879 24.179C82.2362 24.257 82.0997 24.3632 81.9784 24.4975C81.8614 24.6275 81.7769 24.7792 81.7249 24.9525V27H81.1529V23.607H81.6729V24.335C81.7639 24.1747 81.8809 24.036 82.0239 23.919C82.1669 23.802 82.3294 23.711 82.5114 23.646C82.6934 23.581 82.8841 23.5485 83.0834 23.5485C83.2784 23.5485 83.4409 23.5853 83.5709 23.659C83.7052 23.7283 83.8092 23.828 83.8829 23.958C83.9609 24.0837 84.0151 24.2332 84.0454 24.4065C84.0801 24.5798 84.0974 24.7683 84.0974 24.972V27ZM85.8921 27L84.5596 23.607H85.1576L86.2236 26.454L87.2896 23.607H87.8486L86.5161 27H85.8921ZM89.8082 27.065C89.5525 27.065 89.3185 27.0195 89.1062 26.9285C88.8982 26.8332 88.7162 26.7053 88.5602 26.545C88.4085 26.3803 88.2894 26.1918 88.2027 25.9795C88.1204 25.7672 88.0792 25.5418 88.0792 25.3035C88.0792 24.9828 88.1529 24.6903 88.3002 24.426C88.4475 24.1617 88.6512 23.9493 88.9112 23.789C89.1755 23.6287 89.4767 23.5485 89.8147 23.5485C90.157 23.5485 90.4539 23.6308 90.7052 23.7955C90.9609 23.9558 91.158 24.1682 91.2967 24.4325C91.4397 24.6925 91.5112 24.9742 91.5112 25.2775C91.5112 25.3208 91.509 25.3642 91.5047 25.4075C91.5047 25.4465 91.5025 25.4768 91.4982 25.4985H88.6837C88.701 25.7195 88.7617 25.9167 88.8657 26.09C88.974 26.259 89.1127 26.3933 89.2817 26.493C89.4507 26.5883 89.6327 26.636 89.8277 26.636C90.0357 26.636 90.2307 26.584 90.4127 26.48C90.599 26.376 90.7269 26.2395 90.7962 26.0705L91.2902 26.207C91.2165 26.3717 91.106 26.519 90.9587 26.649C90.8157 26.779 90.6445 26.8808 90.4452 26.9545C90.2502 27.0282 90.0379 27.065 89.8082 27.065ZM88.6642 25.102H90.9782C90.9609 24.881 90.898 24.686 90.7897 24.517C90.6814 24.348 90.5427 24.2158 90.3737 24.1205C90.2047 24.0252 90.0184 23.9775 89.8147 23.9775C89.6154 23.9775 89.4312 24.0252 89.2622 24.1205C89.0932 24.2158 88.9545 24.348 88.8462 24.517C88.7422 24.686 88.6815 24.881 88.6642 25.102ZM93.3105 27.065C93.0289 27.065 92.7645 27.0195 92.5175 26.9285C92.2705 26.8332 92.0582 26.6923 91.8805 26.506L92.1015 26.103C92.2965 26.285 92.4915 26.415 92.6865 26.493C92.8815 26.571 93.0809 26.61 93.2845 26.61C93.5185 26.61 93.7092 26.5667 93.8565 26.48C94.0039 26.389 94.0775 26.2568 94.0775 26.0835C94.0775 25.9578 94.0385 25.8647 93.9605 25.804C93.8869 25.7433 93.7807 25.6935 93.642 25.6545C93.5034 25.6112 93.3387 25.5635 93.148 25.5115C92.914 25.4422 92.7169 25.3685 92.5565 25.2905C92.3962 25.2125 92.2749 25.115 92.1925 24.998C92.1102 24.881 92.069 24.7337 92.069 24.556C92.069 24.3393 92.1254 24.1573 92.238 24.01C92.3507 23.8583 92.5045 23.7435 92.6995 23.6655C92.8989 23.5875 93.1242 23.5485 93.3755 23.5485C93.6269 23.5485 93.8544 23.5875 94.058 23.6655C94.2617 23.7435 94.4372 23.8583 94.5845 24.01L94.3245 24.4065C94.1902 24.2678 94.0429 24.166 93.8825 24.101C93.7222 24.0317 93.5424 23.997 93.343 23.997C93.226 23.997 93.1112 24.0122 92.9985 24.0425C92.8859 24.0685 92.7927 24.1183 92.719 24.192C92.6454 24.2613 92.6085 24.361 92.6085 24.491C92.6085 24.5993 92.6367 24.686 92.693 24.751C92.7537 24.8117 92.8404 24.8637 92.953 24.907C93.07 24.9503 93.2109 24.998 93.3755 25.05C93.6312 25.1237 93.8522 25.1973 94.0385 25.271C94.2292 25.3447 94.3765 25.44 94.4805 25.557C94.5845 25.674 94.6365 25.8365 94.6365 26.0445C94.6365 26.3652 94.5152 26.6165 94.2725 26.7985C94.0299 26.9762 93.7092 27.065 93.3105 27.065ZM97.0759 26.831C97.0282 26.8527 96.9632 26.8808 96.8809 26.9155C96.7985 26.9502 96.7032 26.9805 96.5949 27.0065C96.4865 27.0325 96.3717 27.0455 96.2504 27.0455C96.1117 27.0455 95.9839 27.0217 95.8669 26.974C95.7499 26.922 95.6567 26.844 95.5874 26.74C95.518 26.6317 95.4834 26.4973 95.4834 26.337V24.0555H95.0219V23.607H95.4834V22.476H96.0554V23.607H96.8159V24.0555H96.0554V26.1615C96.064 26.2828 96.1052 26.3738 96.1789 26.4345C96.2525 26.4908 96.3392 26.519 96.4389 26.519C96.5515 26.519 96.6555 26.4995 96.7509 26.4605C96.8462 26.4215 96.909 26.3933 96.9394 26.376L97.0759 26.831ZM102.722 27H102.15V25.102C102.15 24.7467 102.091 24.4845 101.974 24.3155C101.861 24.1465 101.692 24.062 101.467 24.062C101.237 24.062 101.029 24.1465 100.843 24.3155C100.657 24.4802 100.525 24.6947 100.447 24.959V27H99.8745V25.102C99.8745 24.7423 99.8182 24.4802 99.7055 24.3155C99.5929 24.1465 99.4239 24.062 99.1985 24.062C98.9732 24.062 98.7652 24.1443 98.5745 24.309C98.3882 24.4693 98.256 24.6838 98.178 24.9525V27H97.606V23.607H98.126V24.335C98.2647 24.0837 98.4445 23.8908 98.6655 23.7565C98.8865 23.6178 99.1357 23.5485 99.413 23.5485C99.6947 23.5485 99.92 23.6265 100.089 23.7825C100.258 23.9342 100.362 24.1313 100.401 24.374C100.553 24.1053 100.737 23.9017 100.954 23.763C101.17 23.62 101.417 23.5485 101.695 23.5485C101.89 23.5485 102.052 23.5853 102.182 23.659C102.316 23.7283 102.423 23.828 102.501 23.958C102.579 24.0837 102.635 24.2332 102.67 24.4065C102.704 24.5798 102.722 24.7683 102.722 24.972V27ZM105.112 27.065C104.857 27.065 104.623 27.0195 104.41 26.9285C104.202 26.8332 104.02 26.7053 103.864 26.545C103.713 26.3803 103.594 26.1918 103.507 25.9795C103.425 25.7672 103.383 25.5418 103.383 25.3035C103.383 24.9828 103.457 24.6903 103.604 24.426C103.752 24.1617 103.955 23.9493 104.215 23.789C104.48 23.6287 104.781 23.5485 105.119 23.5485C105.461 23.5485 105.758 23.6308 106.009 23.7955C106.265 23.9558 106.462 24.1682 106.601 24.4325C106.744 24.6925 106.815 24.9742 106.815 25.2775C106.815 25.3208 106.813 25.3642 106.809 25.4075C106.809 25.4465 106.807 25.4768 106.802 25.4985H103.988C104.005 25.7195 104.066 25.9167 104.17 26.09C104.278 26.259 104.417 26.3933 104.586 26.493C104.755 26.5883 104.937 26.636 105.132 26.636C105.34 26.636 105.535 26.584 105.717 26.48C105.903 26.376 106.031 26.2395 106.1 26.0705L106.594 26.207C106.521 26.3717 106.41 26.519 106.263 26.649C106.12 26.779 105.949 26.8808 105.749 26.9545C105.554 27.0282 105.342 27.065 105.112 27.065ZM103.968 25.102H106.282C106.265 24.881 106.202 24.686 106.094 24.517C105.986 24.348 105.847 24.2158 105.678 24.1205C105.509 24.0252 105.323 23.9775 105.119 23.9775C104.92 23.9775 104.735 24.0252 104.566 24.1205C104.397 24.2158 104.259 24.348 104.15 24.517C104.046 24.686 103.986 24.881 103.968 25.102ZM110.396 27H109.824V25.102C109.824 24.7423 109.767 24.4802 109.655 24.3155C109.546 24.1465 109.38 24.062 109.154 24.062C108.998 24.062 108.842 24.101 108.686 24.179C108.535 24.257 108.398 24.3632 108.277 24.4975C108.16 24.6275 108.075 24.7792 108.023 24.9525V27H107.451V23.607H107.971V24.335C108.062 24.1747 108.179 24.036 108.322 23.919C108.465 23.802 108.628 23.711 108.81 23.646C108.992 23.581 109.182 23.5485 109.382 23.5485C109.577 23.5485 109.739 23.5853 109.869 23.659C110.004 23.7283 110.108 23.828 110.181 23.958C110.259 24.0837 110.313 24.2332 110.344 24.4065C110.378 24.5798 110.396 24.7683 110.396 24.972V27ZM113.008 26.831C112.961 26.8527 112.896 26.8808 112.813 26.9155C112.731 26.9502 112.636 26.9805 112.527 27.0065C112.419 27.0325 112.304 27.0455 112.183 27.0455C112.044 27.0455 111.916 27.0217 111.799 26.974C111.682 26.922 111.589 26.844 111.52 26.74C111.451 26.6317 111.416 26.4973 111.416 26.337V24.0555H110.954V23.607H111.416V22.476H111.988V23.607H112.748V24.0555H111.988V26.1615C111.997 26.2828 112.038 26.3738 112.111 26.4345C112.185 26.4908 112.272 26.519 112.371 26.519C112.484 26.519 112.588 26.4995 112.683 26.4605C112.779 26.4215 112.842 26.3933 112.872 26.376L113.008 26.831ZM114.702 27.065C114.42 27.065 114.156 27.0195 113.909 26.9285C113.662 26.8332 113.45 26.6923 113.272 26.506L113.493 26.103C113.688 26.285 113.883 26.415 114.078 26.493C114.273 26.571 114.472 26.61 114.676 26.61C114.91 26.61 115.101 26.5667 115.248 26.48C115.395 26.389 115.469 26.2568 115.469 26.0835C115.469 25.9578 115.43 25.8647 115.352 25.804C115.278 25.7433 115.172 25.6935 115.034 25.6545C114.895 25.6112 114.73 25.5635 114.54 25.5115C114.306 25.4422 114.108 25.3685 113.948 25.2905C113.788 25.2125 113.666 25.115 113.584 24.998C113.502 24.881 113.461 24.7337 113.461 24.556C113.461 24.3393 113.517 24.1573 113.63 24.01C113.742 23.8583 113.896 23.7435 114.091 23.6655C114.29 23.5875 114.516 23.5485 114.767 23.5485C115.018 23.5485 115.246 23.5875 115.45 23.6655C115.653 23.7435 115.829 23.8583 115.976 24.01L115.716 24.4065C115.582 24.2678 115.434 24.166 115.274 24.101C115.114 24.0317 114.934 23.997 114.735 23.997C114.618 23.997 114.503 24.0122 114.39 24.0425C114.277 24.0685 114.184 24.1183 114.111 24.192C114.037 24.2613 114 24.361 114 24.491C114 24.5993 114.028 24.686 114.085 24.751C114.145 24.8117 114.232 24.8637 114.345 24.907C114.462 24.9503 114.602 24.998 114.767 25.05C115.023 25.1237 115.244 25.1973 115.43 25.271C115.621 25.3447 115.768 25.44 115.872 25.557C115.976 25.674 116.028 25.8365 116.028 26.0445C116.028 26.3652 115.907 26.6165 115.664 26.7985C115.421 26.9762 115.101 27.065 114.702 27.065ZM122.423 23.607H122.976L121.533 27H121.032L120.376 25.401L119.726 27H119.225L117.782 23.607H118.328L119.498 26.4345L120.044 25.0435L119.472 23.6135H119.973L120.376 24.6925L120.779 23.6135H121.279L120.714 25.0435L121.26 26.4345L122.423 23.607ZM123.511 27V23.607H124.083V27H123.511ZM123.511 22.97V22.255H124.083V22.97H123.511ZM126.764 26.831C126.716 26.8527 126.651 26.8808 126.569 26.9155C126.487 26.9502 126.391 26.9805 126.283 27.0065C126.175 27.0325 126.06 27.0455 125.938 27.0455C125.8 27.0455 125.672 27.0217 125.555 26.974C125.438 26.922 125.345 26.844 125.275 26.74C125.206 26.6317 125.171 26.4973 125.171 26.337V24.0555H124.71V23.607H125.171V22.476H125.743V23.607H126.504V24.0555H125.743V26.1615C125.752 26.2828 125.793 26.3738 125.867 26.4345C125.941 26.4908 126.027 26.519 126.127 26.519C126.24 26.519 126.344 26.4995 126.439 26.4605C126.534 26.4215 126.597 26.3933 126.627 26.376L126.764 26.831ZM130.239 27H129.667V25.102C129.667 24.7553 129.604 24.4953 129.478 24.322C129.357 24.1487 129.181 24.062 128.952 24.062C128.804 24.062 128.655 24.101 128.503 24.179C128.356 24.257 128.226 24.3632 128.113 24.4975C128 24.6275 127.918 24.7792 127.866 24.9525V27H127.294V22.255H127.866V24.335C128 24.0923 128.182 23.9017 128.412 23.763C128.646 23.62 128.897 23.5485 129.166 23.5485C129.37 23.5485 129.539 23.5853 129.673 23.659C129.812 23.7283 129.922 23.828 130.005 23.958C130.087 24.088 130.145 24.2397 130.18 24.413C130.219 24.582 130.239 24.7683 130.239 24.972V27ZM134.064 22.385H134.558L136.443 27H135.819L135.273 25.648H133.336L132.796 27H132.172L134.064 22.385ZM135.143 25.193L134.311 23.061L133.453 25.193H135.143ZM137.059 27V22.385H137.644V27H137.059Z" fill="white"/>
<defs>
<clipPath id="clip0_18_2183">
<rect width="31" height="31" fill="white" transform="translate(0 2)"/>
</clipPath>
</defs>
</svg>
