<svg width="31" height="31" viewBox="0 0 31 31" fill="none" xmlns="http://www.w3.org/2000/svg">
<g id="ps:magnifying-glass" clip-path="url(#clip0_18_2185)">
<path id="Vector" d="M25.0664 21.4336C24.3398 20.707 23.5124 20.485 22.584 20.7676L20.6465 18.8301C22.3822 16.6908 23.25 14.2891 23.25 11.625C23.25 8.39583 22.1198 5.65104 19.8594 3.39062C17.599 1.13021 14.8542 0 11.625 0C8.39583 0 5.65104 1.13021 3.39062 3.39062C1.13021 5.65104 0 8.39583 0 11.625C0 14.8542 1.13021 17.599 3.39062 19.8594C5.65104 22.1198 8.39583 23.25 11.625 23.25C14.4505 23.25 16.8522 22.3822 18.8301 20.6465L20.7676 22.584C20.5254 23.5527 20.7474 24.3802 21.4336 25.0664L26.5801 30.2129C27.1048 30.7376 27.7103 31 28.3965 31C29.123 31 29.7285 30.7376 30.2129 30.2129C30.7376 29.6882 31 29.0827 31 28.3965C31 27.7103 30.7376 27.1048 30.2129 26.5801L25.0664 21.4336ZM11.625 20.6465C9.1224 20.6465 6.99316 19.7686 5.2373 18.0127C3.48145 16.2568 2.60352 14.1276 2.60352 11.625C2.60352 9.1224 3.48145 6.99316 5.2373 5.2373C6.99316 3.48145 9.1224 2.60352 11.625 2.60352C14.1276 2.60352 16.2568 3.48145 18.0127 5.2373C19.7686 6.99316 20.6465 9.1224 20.6465 11.625C20.6465 14.1276 19.7686 16.2568 18.0127 18.0127C16.2568 19.7686 14.1276 20.6465 11.625 20.6465Z" fill="#26890D"/>
<path id="Vector_2" d="M29.0008 0.884704C28.8684 0.536032 28.615 0.258954 28.2962 0.114155C28.1393 0.0410374 27.9708 0.00225455 27.8003 0H21.2759C20.9298 0 20.5979 0.150338 20.3532 0.417942C20.1085 0.685545 19.971 1.04849 19.971 1.42694C19.971 1.80539 20.1085 2.16834 20.3532 2.43594C20.5979 2.70355 20.9298 2.85388 21.2759 2.85388H24.6555L17.3612 10.8305L13.0681 6.12158C12.9468 5.98784 12.8025 5.88168 12.6435 5.80924C12.4845 5.73679 12.3139 5.69949 12.1417 5.69949C11.9694 5.69949 11.7989 5.73679 11.6399 5.80924C11.4808 5.88168 11.3365 5.98784 11.2152 6.12158L3.38591 14.6832C3.2636 14.8159 3 15 2.5 15.5C2.43375 15.6739 2.99992 15.508 2.99992 15.6964C2.99992 15.8847 3.43368 15.8261 3.49992 16C3.56617 16.1739 3.87762 16.3673 3.99992 16.5C4.12123 16.6337 3.84099 16.9276 4 17C4.15901 17.0724 4.14011 17.1316 4.31237 17.1316C4.48463 17.1316 4.34091 17.5724 4.49992 17.5C4.65893 17.4276 5.11754 16.8432 5.23884 16.7095L12.1417 9.1467L16.4348 13.8556C16.5561 13.9894 16.7004 14.0955 16.8594 14.168C17.0184 14.2404 17.189 14.2777 17.3612 14.2777C17.5335 14.2777 17.704 14.2404 17.863 14.168C18.0221 14.0955 18.1664 13.9894 18.2877 13.8556L26.4954 4.86587V8.56165C26.4954 8.9401 26.6329 9.30305 26.8776 9.57065C27.1223 9.83826 27.4542 9.98859 27.8003 9.98859C28.1464 9.98859 28.4783 9.83826 28.723 9.57065C28.9677 9.30305 29.1052 8.9401 29.1052 8.56165V1.42694C29.1031 1.24047 29.0677 1.05625 29.0008 0.884704Z" fill="white"/>
<path id="Vector 2" d="M2 16.5L5.5 18.5C5.5 18.5 4.5091 17.3331 4 16.5C3.54465 15.7549 3 14.5 3 14.5L2 16.5Z" fill="#26890D"/>
</g>
<defs>
<clipPath id="clip0_18_2185">
<rect width="31" height="31" fill="white"/>
</clipPath>
</defs>
</svg>
